<svg width="1440" height="70" viewBox="0 0 1440 70" fill="none" xmlns="http://www.w3.org/2000/svg">
<rect width="1440" height="69.999" fill="url(#paint0_linear_1_294)"/>
<path d="M184.372 20.6V49H190.132V31.04L196.732 43.08H200.972L207.572 31.04V49H213.332V20.6H207.932L198.932 37L189.972 20.6H184.372ZM219.313 20.6V49H229.833C234.993 49 240.193 46.68 240.193 40.92C240.193 37.72 238.633 35.12 235.633 33.96C237.913 32.72 238.993 30.52 238.993 27.96C238.993 22.52 234.273 20.6 229.633 20.6H219.313ZM225.073 44.08V36.64H229.553C232.033 36.64 234.233 37.56 234.233 40.36C234.233 43.16 232.033 44.08 229.553 44.08H225.073ZM225.073 32.04V25.52H228.993C231.193 25.52 233.073 26.32 233.073 28.8C233.073 31.24 231.153 32.04 228.993 32.04H225.073ZM242.786 25.88H250.786V49H256.746V25.88H264.746V20.6H242.786V25.88ZM264.753 38.44C264.753 44.8 269.433 49.6 275.713 49.6C282.193 49.6 286.833 44.72 286.833 38.4C286.833 32 282.153 27.28 275.873 27.28C269.473 27.28 264.753 32.16 264.753 38.44ZM275.793 32.32C279.193 32.32 281.113 35.32 281.113 38.44C281.113 41.6 279.113 44.56 275.793 44.56C272.433 44.56 270.473 41.52 270.473 38.44C270.473 35.28 272.473 32.32 275.793 32.32ZM291.314 19.16V49H296.794V38.48L305.074 49H312.154L302.394 37.24L311.194 27.88H304.634L296.794 36.48V19.16H291.314ZM313.423 38.4C313.423 44.8 317.863 49.6 324.223 49.6C328.183 49.6 332.303 47.64 333.823 43.84L328.823 42.24C327.783 43.92 326.263 44.88 324.263 44.88C321.223 44.88 319.543 42.64 319.103 39.84H334.263V38.44C334.263 32.04 330.383 27.28 323.943 27.28C317.623 27.28 313.423 32.4 313.423 38.4ZM323.943 31.6C326.623 31.6 328.143 33.6 328.503 36.08H319.183C319.663 33.6 321.263 31.6 323.943 31.6ZM338.539 27.88V49H344.139V36.88C344.139 34.28 345.859 32.32 348.459 32.32C351.219 32.32 352.219 34.6 352.219 37.04V49H357.819V36.32C357.819 31.4 355.299 27.28 350.099 27.28C347.539 27.28 345.179 28.36 343.859 30.6L343.699 27.88H338.539Z" fill="#F7F7F7"/>
<path d="M175.545 25.0017C178.816 32.9887 175.817 43.9749 168.822 49.5337C161.827 55.0925 153.511 53.0989 150.239 45.1119C146.967 37.1249 149.967 26.1387 156.962 20.5799C163.957 15.0211 172.273 17.0147 175.545 25.0017Z" fill="#434343" stroke="#434343" stroke-width="0.2"/>
<path d="M177.938 26.4308C181.026 33.9713 178.195 44.3441 171.59 49.5929C164.985 54.8417 157.133 52.9588 154.044 45.4184C150.956 37.878 153.787 27.5051 160.392 22.2563C166.997 17.0076 174.849 18.8904 177.938 26.4308Z" fill="white" stroke="#434343" stroke-width="0.2"/>
<path d="M176.895 27.5849C179.752 34.5602 177.287 44.014 171.39 48.7005C165.492 53.3871 158.395 51.5318 155.538 44.5565C152.681 37.5811 155.146 28.1274 161.043 23.4408C166.94 18.7543 174.037 20.6095 176.895 27.5849Z" stroke="#434343" stroke-width="0.2"/>
<path d="M175.09 29.3414C177.464 35.1369 175.448 42.9642 170.59 46.8248C165.732 50.6854 159.869 49.1191 157.495 43.3236C155.121 37.5281 157.137 29.7008 161.995 25.8402C166.853 21.9796 172.716 23.5458 175.09 29.3414Z" stroke="#434343" stroke-width="0.2"/>
<path d="M167.266 31.7027L167.266 31.4749L167.996 31.1615L167.996 31.3893L167.266 31.7027Z" fill="#434343" stroke="#434343" stroke-width="0.2"/>
<path d="M166.58 32.8524L166.58 32.6246L168.683 31.7227L168.683 31.9505L166.58 32.8524Z" fill="#434343" stroke="#434343" stroke-width="0.2"/>
<path d="M163.379 37.2197L163.379 36.992L163.653 36.8747L163.653 37.1024L163.379 37.2197Z" fill="#434343" stroke="#434343" stroke-width="0.2"/>
<path d="M164.293 36.8274L164.293 36.5996L164.566 36.4823L164.566 36.7101L164.293 36.8274Z" fill="#434343" stroke="#434343" stroke-width="0.2"/>
<path d="M165.208 36.4351L165.208 36.2074L165.482 36.0901L165.482 36.3178L165.208 36.4351Z" fill="#434343" stroke="#434343" stroke-width="0.2"/>
<path d="M166.124 36.0427L166.124 35.8149L166.397 35.6976L166.397 35.9254L166.124 36.0427Z" fill="#434343" stroke="#434343" stroke-width="0.2"/>
<path d="M167.037 35.6502L167.037 35.4225L167.31 35.3052L167.31 35.5329L167.037 35.6502Z" fill="#434343" stroke="#434343" stroke-width="0.2"/>
<path d="M167.952 35.2581L167.952 35.0303L168.226 34.913L168.226 35.1408L167.952 35.2581Z" fill="#434343" stroke="#434343" stroke-width="0.2"/>
<path d="M168.867 34.8657L168.867 34.638L169.141 34.5207L169.141 34.7484L168.867 34.8657Z" fill="#434343" stroke="#434343" stroke-width="0.2"/>
<path d="M169.781 34.4735L169.781 34.2457L170.054 34.1284L170.054 34.3562L169.781 34.4735Z" fill="#434343" stroke="#434343" stroke-width="0.2"/>
<path d="M170.696 34.0813L170.696 33.8535L170.969 33.7362L170.969 33.964L170.696 34.0813Z" fill="#434343" stroke="#434343" stroke-width="0.2"/>
<path d="M171.609 33.689L171.609 33.4612L171.883 33.3439L171.883 33.5717L171.609 33.689Z" fill="#434343" stroke="#434343" stroke-width="0.2"/>
<path d="M165.437 39.3312L165.437 39.1035L165.711 38.9862L165.711 39.2139L165.437 39.3312Z" fill="#434343" stroke="#434343" stroke-width="0.2"/>
<path d="M168.546 37.5699L168.454 37.6093L168.454 37.7093L168.454 38.5649L168.454 38.6649L168.546 38.6254L169.689 38.1351L169.781 38.0957L169.781 37.9957L169.781 37.1401L169.781 37.0401L169.689 37.0796L168.546 37.5699ZM170.055 37.8784L170.055 37.9784L170.147 37.9389L171.29 37.4486L171.382 37.4091L171.382 37.3091L171.382 36.4536L171.382 36.3536L171.29 36.393L170.147 36.8834L170.055 36.9228L170.055 37.0228L170.055 37.8784ZM171.29 36.1653L171.382 36.1259L171.382 36.0259L171.382 35.1704L171.382 35.0704L171.29 35.1098L170.147 35.6001L170.055 35.6396L170.055 35.7396L170.055 36.5951L170.055 36.6951L170.147 36.6557L171.29 36.1653ZM169.781 35.8569L169.781 35.7569L169.689 35.7963L168.546 36.2866L168.454 36.3261L168.454 36.4261L168.454 37.2816L168.454 37.3816L168.546 37.3422L169.689 36.8518L169.781 36.8124L169.781 36.7124L169.781 35.8569ZM168.181 38.896L168.181 36.3295C168.181 36.2932 168.193 36.2627 168.212 36.2371C168.232 36.2098 168.266 36.179 168.318 36.157L171.518 34.7839C171.57 34.7619 171.604 34.7631 171.624 34.7732C171.643 34.7827 171.655 34.8027 171.655 34.8392L171.655 37.4057C171.655 37.4422 171.643 37.4727 171.624 37.4982C171.604 37.5255 171.57 37.5562 171.518 37.5783L168.318 38.9513C168.266 38.9734 168.232 38.9721 168.212 38.962C168.193 38.9525 168.181 38.9325 168.181 38.896Z" fill="#434343" stroke="#434343" stroke-width="0.2"/>
<path d="M173.484 38.1183L173.484 38.2183L173.576 38.1789L174.399 37.826L174.399 38.0537L173.347 38.5047L161.916 43.4083L160.864 43.8593L160.864 43.6315L161.687 43.2786L161.779 43.2392L161.779 43.1392L161.779 42.4976C161.779 42.4611 161.791 42.4306 161.81 42.4051C161.83 42.3778 161.864 42.3471 161.916 42.325L162.373 42.1289L162.465 42.0895L162.465 41.9895L162.465 36.8564L162.465 36.7564L162.373 36.7958L161.687 37.09C161.636 37.1121 161.601 37.1109 161.581 37.1008C161.562 37.0913 161.55 37.0712 161.55 37.0348L161.55 36.2434C161.55 36.2089 161.56 36.1769 161.596 36.1397L161.733 35.9953L161.779 35.9467L161.779 35.938L167.544 29.4578L167.544 29.4575C167.578 29.4193 167.607 29.3985 167.631 29.3878C167.656 29.3771 167.685 29.3733 167.719 29.3825L167.719 29.3826L169.64 29.8849L169.781 29.9218L169.781 29.7399L169.781 28.7988C169.781 28.7624 169.793 28.7319 169.812 28.7064C169.832 28.6791 169.866 28.6484 169.918 28.6263L171.747 27.8417C171.798 27.8196 171.833 27.8209 171.853 27.831C171.871 27.8405 171.884 27.8605 171.884 27.897L171.884 30.4421L171.884 30.4971L171.926 30.5083L173.664 30.9606L173.664 30.9607L173.667 30.9614C173.703 30.9683 173.713 30.9919 173.713 31.0264L173.713 31.8177C173.713 31.8542 173.701 31.8846 173.682 31.9102C173.662 31.9374 173.627 31.9682 173.576 31.9902L172.89 32.2845L172.798 32.3239L172.798 32.4239L172.798 37.557L172.798 37.657L172.89 37.6176L173.347 37.4214C173.399 37.3993 173.433 37.4005 173.453 37.4107C173.472 37.4201 173.484 37.4402 173.484 37.4766L173.484 38.1183ZM171.61 28.2281L171.61 28.1281L171.518 28.1676L170.146 28.756L170.055 28.7954L170.055 28.8954L170.055 29.1093L170.055 29.2093L170.146 29.1699L171.518 28.5814L171.61 28.542L171.61 28.442L171.61 28.2281ZM170.146 29.3976L170.055 29.4371L170.055 29.5371L170.055 29.9434L170.055 29.9979L170.097 30.0094L171.468 30.3834L171.61 30.4221L171.61 30.2386L171.61 28.8698L171.61 28.7698L171.518 28.8092L170.146 29.3976ZM161.916 36.1364L161.824 36.1758L161.824 36.2758L161.824 36.7038L161.824 36.8038L161.916 36.7644L162.602 36.4702L172.661 32.155L173.347 31.8608L173.439 31.8214L173.439 31.7214L173.439 31.2508L173.439 31.1961L173.397 31.1848L167.681 29.6584L167.632 29.6452L167.582 29.7009L162.415 35.5103L162.15 35.8082L162.464 35.6733L170.969 32.0252L170.969 32.2529L161.916 36.1364ZM162.83 36.5997L162.738 36.6391L162.738 36.7391L162.738 41.8722L162.738 41.9722L162.83 41.9327L163.745 41.5405L163.837 41.501L163.837 41.401L163.837 38.4067L163.837 38.3067L163.745 38.3462L163.379 38.5029L163.379 38.2751L163.973 38.0203L166.488 36.9415L167.082 36.6867L167.082 36.9145L166.717 37.0712L166.625 37.1106L166.625 37.2106L166.625 40.2049L166.625 40.3049L166.717 40.2655L172.433 37.8137L172.525 37.7743L172.525 37.6743L172.525 32.5412L172.525 32.4412L172.433 32.4806L162.83 36.5997ZM164.202 38.15L164.11 38.1894L164.11 38.2894L164.11 41.2837L164.11 41.3837L164.202 41.3443L166.26 40.4617L166.352 40.4222L166.352 40.3222L166.352 37.3279L166.352 37.2279L166.26 37.2674L164.202 38.15ZM162.052 43.0219L162.052 43.1219L162.144 43.0825L173.119 38.375L173.211 38.3356L173.211 38.2356L173.211 37.8078L173.211 37.7078L173.119 37.7472L172.661 37.9434L166.488 40.5913L163.973 41.6701L162.602 42.2586L162.144 42.4547L162.052 42.4941L162.052 42.5941L162.052 43.0219Z" fill="#434343" stroke="#434343" stroke-width="0.2"/>
<path d="M812.371 36.8307C811.199 36 809.889 35.3977 808.65 34.6693C807.827 34.2417 807.041 33.7371 806.302 33.1614C805.122 32.126 805.359 30.0866 806.605 29.1968C808.373 27.933 811.313 28.6496 811.617 31.2205C811.618 31.2473 811.63 31.2723 811.648 31.2906C811.667 31.3088 811.691 31.319 811.716 31.3189H814.387C814.402 31.319 814.417 31.3157 814.431 31.3092C814.444 31.3027 814.457 31.2933 814.467 31.2814C814.477 31.2695 814.485 31.2555 814.489 31.2402C814.494 31.225 814.496 31.2088 814.494 31.1929C814.35 29.4173 813.717 27.9409 812.541 26.996C811.453 26.1038 810.12 25.6169 808.747 25.6102C801.671 25.6102 801.028 33.5827 804.833 36.0985C805.277 36.3898 809.009 38.3859 810.329 39.2481C811.65 40.1103 812.064 41.7087 811.491 42.9725C810.969 44.13 809.616 44.9056 808.262 44.8308C806.783 44.7481 805.636 43.8899 805.233 42.5552C805.168 42.2596 805.133 41.9573 805.129 41.6536C805.127 41.6247 805.115 41.5977 805.095 41.5779C805.076 41.5582 805.049 41.5472 805.022 41.5473H802.115C802.086 41.5483 802.059 41.5612 802.039 41.5833C802.019 41.6053 802.008 41.6348 802.008 41.6654C802.008 43.9017 802.533 45.1379 803.946 46.2678C805.184 47.268 806.7 47.8 808.255 47.7796C812.208 47.7796 814.272 45.3938 814.679 42.9213C815.086 40.4489 814.416 38.2717 812.371 36.8307Z" fill="#F7F7F7"/>
<path d="M686.443 25.9921H683.762C683.739 25.9913 683.717 25.9986 683.699 26.0129C683.681 26.0272 683.668 26.0477 683.662 26.0709L681.273 34.4213C681.267 34.4446 681.254 34.4652 681.236 34.4798C681.218 34.4944 681.196 34.5024 681.173 34.5024C681.15 34.5024 681.128 34.4944 681.11 34.4798C681.092 34.4652 681.079 34.4446 681.073 34.4213L678.688 26.0709C678.681 26.0477 678.667 26.0275 678.648 26.0134C678.629 25.9992 678.607 25.9918 678.584 25.9921H674.172C674.144 25.9921 674.117 26.0036 674.097 26.0242C674.077 26.0447 674.065 26.0728 674.064 26.1024V47.4372C674.064 47.4675 674.076 47.4965 674.096 47.5179C674.116 47.5393 674.143 47.5514 674.172 47.5514H677.079C677.093 47.5514 677.106 47.5484 677.119 47.5426C677.132 47.5368 677.144 47.5284 677.153 47.5177C677.163 47.507 677.171 47.4944 677.176 47.4806C677.181 47.4668 677.183 47.452 677.182 47.4372V31.2284C677.184 31.2026 677.194 31.1782 677.211 31.1594C677.228 31.1405 677.25 31.1282 677.274 31.1246C677.298 31.1209 677.323 31.1261 677.344 31.1392C677.365 31.1524 677.381 31.1727 677.389 31.1969L679.793 39.6025L679.96 40.1891C679.967 40.2123 679.981 40.2324 680 40.2466C680.018 40.2608 680.041 40.2682 680.063 40.2678H682.283C682.305 40.2682 682.328 40.2608 682.347 40.2466C682.365 40.2324 682.379 40.2123 682.386 40.1891L682.553 39.6025L684.957 31.1969C684.965 31.1727 684.981 31.1524 685.002 31.1392C685.023 31.1261 685.048 31.1209 685.072 31.1246C685.096 31.1282 685.118 31.1405 685.135 31.1594C685.152 31.1782 685.162 31.2026 685.164 31.2284V47.4372C685.163 47.452 685.166 47.4668 685.171 47.4806C685.176 47.4944 685.183 47.507 685.193 47.5177C685.202 47.5284 685.214 47.5368 685.227 47.5426C685.24 47.5484 685.253 47.5514 685.267 47.5514H688.174C688.203 47.5514 688.23 47.5393 688.25 47.5179C688.27 47.4965 688.282 47.4675 688.282 47.4372V26.1024C688.281 26.0728 688.269 26.0447 688.249 26.0242C688.229 26.0036 688.202 25.9921 688.174 25.9921H686.443Z" fill="#F7F7F7"/>
<path d="M767.955 25.9921C767.933 25.9925 767.911 26.0004 767.893 26.0145C767.875 26.0286 767.862 26.0483 767.855 26.0708L765.47 34.4213C765.463 34.444 765.449 34.4637 765.431 34.4777C765.412 34.4917 765.39 34.4992 765.368 34.4992C765.345 34.4992 765.324 34.4917 765.305 34.4777C765.287 34.4637 765.273 34.444 765.266 34.4213L762.881 26.0708C762.874 26.048 762.861 26.0279 762.843 26.0137C762.825 25.9995 762.803 25.9919 762.781 25.9921H758.368C758.341 25.992 758.314 26.0035 758.294 26.0241C758.274 26.0447 758.262 26.0727 758.261 26.1023V47.4371C758.261 47.4674 758.273 47.4964 758.293 47.5179C758.313 47.5393 758.34 47.5513 758.368 47.5513H761.276C761.303 47.5503 761.33 47.5378 761.349 47.5165C761.368 47.4952 761.379 47.4667 761.379 47.4371V31.2283C761.381 31.2025 761.391 31.1782 761.408 31.1593C761.425 31.1404 761.447 31.1282 761.471 31.1245C761.495 31.1209 761.519 31.126 761.54 31.1392C761.561 31.1523 761.578 31.1726 761.586 31.1968L763.99 39.6024L764.157 40.189C764.164 40.2116 764.177 40.2313 764.195 40.2454C764.213 40.2595 764.234 40.2673 764.257 40.2678H766.476C766.498 40.2686 766.52 40.2613 766.539 40.247C766.557 40.2327 766.57 40.2122 766.576 40.189L766.746 39.6024L769.146 31.1968C769.155 31.1726 769.171 31.1523 769.192 31.1392C769.213 31.126 769.237 31.1209 769.261 31.1245C769.285 31.1282 769.308 31.1404 769.324 31.1593C769.341 31.1782 769.351 31.2025 769.353 31.2283V47.4371C769.353 47.4674 769.364 47.4964 769.385 47.5179C769.405 47.5393 769.432 47.5513 769.46 47.5513H772.367C772.395 47.5503 772.422 47.5378 772.441 47.5165C772.46 47.4952 772.471 47.4667 772.471 47.4371V26.1023C772.47 26.0734 772.459 26.0459 772.44 26.0254C772.42 26.005 772.395 25.993 772.367 25.9921H767.955Z" fill="#F7F7F7"/>
<path d="M730.545 25.9921H716.86C716.832 25.992 716.806 26.0035 716.786 26.0241C716.766 26.0447 716.754 26.0727 716.753 26.1023V28.7716C716.754 28.8012 716.766 28.8293 716.786 28.8498C716.806 28.8704 716.832 28.8819 716.86 28.8819H722.16V47.4371C722.16 47.4521 722.163 47.467 722.168 47.4808C722.174 47.4947 722.182 47.5073 722.192 47.5179C722.202 47.5285 722.213 47.5369 722.226 47.5426C722.239 47.5483 722.253 47.5513 722.267 47.5513H725.174C725.202 47.5503 725.229 47.5378 725.248 47.5165C725.267 47.4952 725.278 47.4667 725.278 47.4371V28.8819H730.545C730.573 28.8819 730.599 28.8704 730.619 28.8498C730.639 28.8293 730.651 28.8012 730.652 28.7716V26.1023C730.651 26.0727 730.639 26.0447 730.619 26.0241C730.599 26.0035 730.573 25.992 730.545 25.9921Z" fill="#F7F7F7"/>
<path d="M747.665 47.5513H750.306C750.322 47.5514 750.338 47.5475 750.352 47.5398C750.367 47.5322 750.38 47.521 750.389 47.5072C750.399 47.4934 750.406 47.4774 750.408 47.4605C750.411 47.4435 750.41 47.4261 750.406 47.4096L744.969 26.0039C744.962 25.98 744.949 25.959 744.93 25.944C744.911 25.9291 744.889 25.9211 744.865 25.9212H741.071C741.047 25.9211 741.024 25.9291 741.006 25.944C740.987 25.959 740.973 25.98 740.967 26.0039L735.512 47.4096C735.508 47.4263 735.508 47.4439 735.511 47.4608C735.514 47.4777 735.521 47.4936 735.531 47.5072C735.541 47.5209 735.554 47.5319 735.568 47.5396C735.583 47.5472 735.599 47.5512 735.615 47.5513H738.256C738.279 47.5503 738.302 47.5413 738.32 47.5257C738.338 47.5101 738.35 47.4887 738.356 47.4647L739.943 41.2442C739.948 41.2206 739.961 41.1997 739.979 41.1847C739.997 41.1698 740.02 41.1616 740.042 41.1615H745.879C745.901 41.1622 745.923 41.1706 745.941 41.1855C745.959 41.2003 745.972 41.2209 745.979 41.2442L747.558 47.4607C747.562 47.4872 747.576 47.5109 747.595 47.5276C747.615 47.5442 747.64 47.5527 747.665 47.5513ZM740.734 38.13L742.857 29.7953C742.864 29.7726 742.878 29.7528 742.896 29.7388C742.914 29.7248 742.936 29.7173 742.959 29.7173C742.981 29.7173 743.003 29.7248 743.021 29.7388C743.04 29.7528 743.053 29.7726 743.06 29.7953L745.183 38.13C745.188 38.1465 745.189 38.1639 745.186 38.1809C745.183 38.1978 745.177 38.2138 745.167 38.2276C745.157 38.2414 745.145 38.2526 745.13 38.2602C745.116 38.2679 745.1 38.2718 745.084 38.2717H740.838C740.821 38.2716 740.805 38.2676 740.791 38.26C740.776 38.2523 740.763 38.2413 740.753 38.2276C740.743 38.214 740.737 38.1981 740.733 38.1812C740.73 38.1642 740.73 38.1467 740.734 38.13Z" fill="#F7F7F7"/>
<path d="M792.68 47.5514H795.317C795.333 47.5513 795.349 47.5473 795.364 47.5396C795.378 47.532 795.391 47.5209 795.401 47.5073C795.411 47.4936 795.418 47.4777 795.421 47.4608C795.425 47.4439 795.425 47.4264 795.421 47.4096L789.965 26.0039C789.959 25.9797 789.946 25.9583 789.927 25.9432C789.908 25.9282 789.885 25.9205 789.862 25.9213H786.082C786.058 25.9212 786.036 25.9292 786.017 25.9441C785.998 25.959 785.985 25.98 785.978 26.0039L780.527 47.4096C780.523 47.4261 780.522 47.4433 780.526 47.4599C780.529 47.4765 780.535 47.4922 780.545 47.5058C780.554 47.5194 780.567 47.5305 780.581 47.5384C780.595 47.5463 780.611 47.5507 780.626 47.5514H783.267C783.291 47.551 783.313 47.5423 783.331 47.5266C783.349 47.5109 783.362 47.4891 783.367 47.4647L784.954 41.2442C784.96 41.2203 784.974 41.1993 784.993 41.1844C785.011 41.1694 785.034 41.1614 785.057 41.1615H790.89C790.913 41.1616 790.935 41.1698 790.953 41.1848C790.971 41.1997 790.984 41.2206 790.99 41.2442L792.576 47.4647C792.582 47.4894 792.595 47.5113 792.614 47.527C792.633 47.5426 792.656 47.5512 792.68 47.5514ZM785.749 38.13L787.872 29.7953C787.879 29.7726 787.893 29.7529 787.911 29.7389C787.929 29.7249 787.951 29.7174 787.974 29.7174C787.996 29.7174 788.018 29.7249 788.036 29.7389C788.055 29.7529 788.068 29.7726 788.075 29.7953L790.198 38.13C790.202 38.1468 790.202 38.1643 790.199 38.1812C790.196 38.1981 790.189 38.214 790.179 38.2277C790.169 38.2413 790.156 38.2524 790.142 38.26C790.127 38.2676 790.111 38.2717 790.095 38.2718H785.849C785.833 38.2719 785.817 38.2679 785.802 38.2603C785.788 38.2526 785.775 38.2414 785.765 38.2277C785.756 38.2139 785.749 38.1979 785.746 38.1809C785.743 38.164 785.744 38.1465 785.749 38.13Z" fill="#F7F7F7"/>
<path d="M700.017 44.3977V37.7756C700.017 37.761 700.019 37.7464 700.024 37.7328C700.029 37.7192 700.037 37.7068 700.046 37.6964C700.056 37.6861 700.068 37.678 700.08 37.6727C700.093 37.6673 700.107 37.6648 700.121 37.6654H707.843C707.871 37.6644 707.897 37.6519 707.917 37.6306C707.936 37.6093 707.947 37.5808 707.947 37.5512V34.8858C707.947 34.8562 707.936 34.8278 707.917 34.8065C707.897 34.7852 707.871 34.7727 707.843 34.7717H700.121C700.093 34.7717 700.067 34.7601 700.047 34.7394C700.028 34.7187 700.017 34.6907 700.017 34.6614V28.996C700.017 28.9812 700.019 28.9665 700.024 28.9526C700.029 28.9388 700.036 28.9262 700.046 28.9155C700.056 28.9049 700.067 28.8964 700.08 28.8906C700.093 28.8848 700.107 28.8818 700.121 28.8819H708.908C708.936 28.8819 708.963 28.8704 708.983 28.8498C709.003 28.8293 709.015 28.8012 709.016 28.7716V26.1023C709.015 26.0727 709.003 26.0447 708.983 26.0241C708.963 26.0035 708.936 25.992 708.908 25.9921H697.003C696.975 25.9921 696.949 26.0037 696.93 26.0243C696.91 26.045 696.899 26.0731 696.899 26.1023V47.4371C696.899 47.4519 696.901 47.4667 696.906 47.4805C696.911 47.4944 696.919 47.507 696.928 47.5176C696.938 47.5283 696.949 47.5368 696.962 47.5425C696.975 47.5483 696.989 47.5513 697.003 47.5513H709.286C709.314 47.5513 709.341 47.5393 709.361 47.5179C709.382 47.4964 709.393 47.4674 709.393 47.4371V44.6221C709.393 44.5919 709.382 44.5628 709.361 44.5414C709.341 44.52 709.314 44.508 709.286 44.508H700.121C700.107 44.5085 700.093 44.506 700.08 44.5007C700.068 44.4954 700.056 44.4873 700.046 44.4769C700.037 44.4666 700.029 44.4542 700.024 44.4406C700.019 44.4269 700.017 44.4124 700.017 44.3977Z" fill="#F7F7F7"/>
<path d="M838.882 47.3584L828.844 36.315C828.834 36.3047 828.827 36.2925 828.821 36.279C828.816 36.2654 828.813 36.2509 828.813 36.2362C828.813 36.2216 828.816 36.2071 828.821 36.1935C828.827 36.18 828.834 36.1678 828.844 36.1575L837.872 26.2007C837.887 26.1853 837.897 26.1655 837.901 26.1439C837.906 26.1223 837.903 26.0999 837.896 26.0796C837.888 26.0592 837.874 26.0419 837.857 26.0298C837.839 26.0177 837.819 26.0114 837.798 26.0117H834.104C834.089 26.0117 834.075 26.0149 834.061 26.021C834.048 26.0271 834.036 26.036 834.026 26.0472L826.363 34.5158C826.348 34.5323 826.329 34.5437 826.308 34.5486C826.287 34.5534 826.265 34.5515 826.245 34.543C826.225 34.5346 826.208 34.5199 826.196 34.501C826.184 34.4821 826.178 34.4598 826.178 34.437V26.1023C826.178 26.0731 826.167 26.045 826.147 26.0243C826.128 26.0037 826.102 25.9921 826.074 25.9921H823.167C823.139 25.992 823.113 26.0035 823.093 26.0241C823.072 26.0447 823.061 26.0727 823.06 26.1023V47.4371C823.06 47.4674 823.071 47.4964 823.091 47.5179C823.111 47.5393 823.139 47.5513 823.167 47.5513H826.074C826.088 47.5513 826.102 47.5483 826.115 47.5425C826.127 47.5368 826.139 47.5283 826.149 47.5176C826.158 47.507 826.166 47.4944 826.171 47.4805C826.176 47.4667 826.178 47.4519 826.178 47.4371V38.0473C826.178 38.0253 826.185 38.004 826.197 37.9859C826.209 37.9678 826.225 37.9538 826.244 37.9455C826.263 37.9371 826.285 37.9349 826.305 37.939C826.325 37.9431 826.344 37.9533 826.359 37.9685L835.039 47.5159C835.059 47.5375 835.085 47.5503 835.113 47.5513H838.812C838.832 47.5499 838.852 47.5422 838.868 47.5294C838.885 47.5165 838.897 47.4989 838.905 47.4787C838.912 47.4584 838.914 47.4363 838.91 47.415C838.906 47.3937 838.896 47.3741 838.882 47.3584Z" fill="#F7F7F7"/>
<path d="M660.574 16.2205L646.046 27.8193L648.744 20.9763L660.574 16.2205Z" fill="#F7F7F7" stroke="#F7F7F7" stroke-width="0.712817" stroke-linecap="round" stroke-linejoin="round"/>
<path d="M626.329 16.2205L641.376 27.8193L638.694 20.9317L626.329 16.2205Z" fill="#F7F7F7" stroke="#F7F7F7" stroke-width="0.712817" stroke-linecap="round" stroke-linejoin="round"/>
<path d="M655.194 43.2842L651.234 49.6693L659.708 52.1214L662.13 43.4252L655.194 43.2842Z" fill="#F7F7F7" stroke="#F7F7F7" stroke-width="0.712817" stroke-linecap="round" stroke-linejoin="round"/>
<path d="M624.772 43.4252L627.183 52.1214L635.669 49.6693L631.718 43.2842L624.772 43.4252Z" fill="#F7F7F7" stroke="#F7F7F7" stroke-width="0.712817" stroke-linecap="round" stroke-linejoin="round"/>
<path d="M635.408 32.5586L633.074 36.2682L641.376 36.6564L641.095 27.267L635.408 32.5586Z" fill="#F7F7F7" stroke="#F7F7F7" stroke-width="0.712817" stroke-linecap="round" stroke-linejoin="round"/>
<path d="M652.014 32.6054L646.238 27.267L646.046 36.6564L654.347 36.2726L652.014 32.6054Z" fill="#F7F7F7" stroke="#F7F7F7" stroke-width="0.712817" stroke-linecap="round" stroke-linejoin="round"/>
<path d="M635.668 49.9121L640.857 47.3601L636.388 43.8366L635.668 49.9121Z" fill="#F7F7F7" stroke="#F7F7F7" stroke-width="0.712817" stroke-linecap="round" stroke-linejoin="round"/>
<path d="M646.565 47.3601L651.234 49.9121L650.587 43.8366L646.565 47.3601Z" fill="#F7F7F7" stroke="#F7F7F7" stroke-width="0.712817" stroke-linecap="round" stroke-linejoin="round"/>
<path d="M651.234 49.7639L646.565 47.1506L646.936 50.6496L646.896 52.1215L651.234 49.7639Z" fill="#FEF9F9" stroke="#FEF9F9" stroke-width="0.712817" stroke-linecap="round" stroke-linejoin="round"/>
<path d="M635.668 49.7639L640.489 52.1215L640.459 50.6496L640.857 47.1506L635.668 49.7639Z" fill="#FEF9F9" stroke="#FEF9F9" stroke-width="0.712817" stroke-linecap="round" stroke-linejoin="round"/>
<path d="M640.338 41.075L636.188 39.7583L639.116 38.3134L640.338 41.075Z" fill="#233447" stroke="#233447" stroke-width="0.712817" stroke-linecap="round" stroke-linejoin="round"/>
<path d="M646.565 41.075L647.783 38.3134L650.716 39.7583L646.565 41.075Z" fill="#233447" stroke="#233447" stroke-width="0.712817" stroke-linecap="round" stroke-linejoin="round"/>
<path d="M635.976 49.9121L636.706 43.2842L632.037 43.4306L635.976 49.9121Z" fill="#F7F7F7" stroke="#F7F7F7" stroke-width="0.712817" stroke-linecap="round" stroke-linejoin="round"/>
<path d="M650.716 43.2842L651.444 49.9121L655.386 43.4306L650.716 43.2842Z" fill="#F7F7F7" stroke="#F7F7F7" stroke-width="0.712817" stroke-linecap="round" stroke-linejoin="round"/>
<path d="M654.347 36.1042L646.046 36.5004L646.814 41.0751L648.04 38.3206L650.994 39.7618L654.347 36.1042Z" fill="#F7F7F7" stroke="#F7F7F7" stroke-width="0.712817" stroke-linecap="round" stroke-linejoin="round"/>
<path d="M636.442 39.7618L639.381 38.3206L640.608 41.0751L641.376 36.5004L633.074 36.1042L636.442 39.7618Z" fill="#F7F7F7" stroke="#F7F7F7" stroke-width="0.712817" stroke-linecap="round" stroke-linejoin="round"/>
<path d="M633.074 36.1042L636.706 43.8367L636.583 39.987L633.074 36.1042Z" fill="#F7F7F7" stroke="#F7F7F7" stroke-width="0.712817" stroke-linecap="round" stroke-linejoin="round"/>
<path d="M650.854 39.987L650.716 43.8367L654.348 36.1042L650.854 39.987Z" fill="#F7F7F7" stroke="#F7F7F7" stroke-width="0.712817" stroke-linecap="round" stroke-linejoin="round"/>
<path d="M641.351 36.6566L640.338 41.2163L641.623 46.5984L641.895 39.5124L641.351 36.6566Z" fill="#F7F7F7" stroke="#F7F7F7" stroke-width="0.712817" stroke-linecap="round" stroke-linejoin="round"/>
<path d="M645.881 36.6566L645.527 39.4969L645.697 46.5984L646.564 41.2163L645.881 36.6566Z" fill="#F7F7F7" stroke="#F7F7F7" stroke-width="0.712817" stroke-linecap="round" stroke-linejoin="round"/>
<path d="M646.508 41.2735L645.527 46.6319L646.24 47.1504L650.582 43.5688L650.715 39.9702L646.508 41.2735Z" fill="#F7F7F7" stroke="#F7F7F7" stroke-width="0.712817" stroke-linecap="round" stroke-linejoin="round"/>
<path d="M636.188 39.9702L636.306 43.5688L640.661 47.1504L641.376 46.6319L640.392 41.2735L636.188 39.9702Z" fill="#F7F7F7" stroke="#F7F7F7" stroke-width="0.712817" stroke-linecap="round" stroke-linejoin="round"/>
<path d="M646.569 52.2628L646.613 50.7952L646.244 50.4486H640.659L640.305 50.7952L640.334 52.2628L635.668 49.9122L637.298 51.3316L640.615 53.7785H646.287L649.605 51.3316L651.234 49.9122L646.569 52.2628Z" fill="#FEF9F9" stroke="#FEF9F9" stroke-width="0.712817" stroke-linecap="round" stroke-linejoin="round"/>
<path d="M646.17 47.1722L645.469 46.5983H641.42L640.719 47.1722L640.338 51.0168L640.688 50.6348H646.2L646.565 51.0168L646.17 47.1722Z" fill="#161616" stroke="#161616" stroke-width="0.712817" stroke-linecap="round" stroke-linejoin="round"/>
<path d="M661.407 28.745L662.649 22.2523L660.787 16.2205L646.565 27.5835L652.035 32.5635L659.766 34.9995L661.467 32.8504L660.727 32.2782L661.91 31.1151L661.008 30.3517L662.191 29.3814L661.407 28.745Z" fill="#434343" stroke="#434343" stroke-width="0.712817" stroke-linecap="round" stroke-linejoin="round"/>
<path d="M624.772 22.2523L626.029 28.745L625.231 29.3814L626.414 30.3517L625.512 31.1151L626.695 32.2782L625.955 32.8504L627.656 34.9995L635.386 32.5635L640.857 27.5835L626.635 16.2205L624.772 22.2523Z" fill="#434343" stroke="#434343" stroke-width="0.712817" stroke-linecap="round" stroke-linejoin="round"/>
<path d="M659.556 35.209L651.863 32.7902L654.188 36.5678L650.716 43.8366L655.305 43.7728H662.131L659.556 35.209Z" fill="#F7F7F7" stroke="#F7F7F7" stroke-width="0.712817" stroke-linecap="round" stroke-linejoin="round"/>
<path d="M635.505 32.7902L627.453 35.209L624.772 43.7728H631.918L636.706 43.8366L633.072 36.5678L635.505 32.7902Z" fill="#F7F7F7" stroke="#F7F7F7" stroke-width="0.712817" stroke-linecap="round" stroke-linejoin="round"/>
<path d="M645.938 36.7067L646.434 27.6459L648.64 21.1913H638.781L640.987 27.6459L641.483 36.7067L641.673 39.5636L641.688 46.5981H645.734L645.748 39.5636L645.938 36.7067Z" fill="#F7F7F7" stroke="#F7F7F7" stroke-width="0.712817" stroke-linecap="round" stroke-linejoin="round"/>
<g clip-path="url(#clip0_1_294)">
<path fill-rule="evenodd" clip-rule="evenodd" d="M1141.23 34.9995C1141.23 46.2618 1132.65 55.3928 1122.07 55.3928C1111.49 55.3928 1102.91 46.2618 1102.91 34.9995C1102.91 23.7372 1111.49 14.6062 1122.07 14.6062C1132.65 14.6062 1141.23 23.7372 1141.23 34.9995ZM1112.36 35.6848L1112.45 35.5464L1117.43 27.2473C1117.5 27.1258 1117.67 27.1383 1117.73 27.2703C1118.56 29.2566 1119.28 31.7269 1118.94 33.2648C1118.8 33.8975 1118.41 34.7544 1117.96 35.5464C1117.91 35.6617 1117.84 35.7748 1117.78 35.8838C1117.75 35.9341 1117.69 35.9634 1117.63 35.9634H1112.51C1112.37 35.9634 1112.29 35.8042 1112.36 35.6848ZM1134.58 38.5405V37.2269C1134.58 37.1053 1134.47 37.0173 1134.36 37.0509L1128.53 38.8444C1128.5 38.8527 1128.47 38.8716 1128.45 38.8967C1127.83 39.6307 1127.3 40.1232 1127.16 40.2537L1127.15 40.2628C1126.78 40.5897 1126.33 40.7678 1125.86 40.7678H1123.75V38.4777H1125.43C1125.47 38.4777 1125.51 38.4609 1125.55 38.4316L1125.76 38.22C1125.85 38.1299 1125.96 38.0209 1126.1 37.8805C1126.11 37.8686 1126.12 37.8565 1126.13 37.8443C1126.2 37.7708 1126.27 37.6923 1126.35 37.6061C1126.43 37.516 1126.52 37.4154 1126.6 37.3169C1126.73 37.1661 1126.85 37.0089 1126.99 36.8434C1127.08 36.7345 1127.17 36.6109 1127.25 36.4872C1127.35 36.3699 1127.44 36.2379 1127.53 36.1122C1127.56 36.0618 1127.59 36.0108 1127.63 35.9587C1127.66 35.9091 1127.69 35.8584 1127.73 35.8063C1127.79 35.7057 1127.85 35.5989 1127.91 35.4983C1128.07 35.2259 1128.21 34.9346 1128.33 34.6434C1128.38 34.5187 1128.43 34.3874 1128.47 34.2597C1128.48 34.2437 1128.48 34.2277 1128.49 34.2118C1128.53 34.063 1128.57 33.9227 1128.6 33.7739C1128.67 33.424 1128.69 33.0762 1128.66 32.7284C1128.65 32.6194 1128.64 32.5126 1128.62 32.412V32.3953C1128.61 32.324 1128.59 32.2444 1128.57 32.1711C1128.5 31.8316 1128.39 31.4922 1128.25 31.1591C1128.2 31.0354 1128.15 30.9097 1128.1 30.7945C1127.97 30.5452 1127.84 30.2958 1127.69 30.0549C1127.66 30.004 1127.63 29.9524 1127.59 29.901C1127.57 29.8613 1127.54 29.8217 1127.52 29.7825C1127.42 29.627 1127.32 29.4771 1127.21 29.3316C1127.19 29.2987 1127.17 29.266 1127.14 29.2336C1127.08 29.1483 1127.02 29.063 1126.95 28.9772C1126.91 28.9302 1126.87 28.8829 1126.84 28.8355C1126.74 28.7035 1126.64 28.5778 1126.53 28.4541C1126.17 28.0141 1125.78 27.6161 1125.44 27.2766C1125.38 27.2096 1125.31 27.1425 1125.24 27.0776C1124.97 26.8199 1124.73 26.5957 1124.53 26.4218C1124.47 26.3719 1124.41 26.3228 1124.36 26.277C1124.33 26.2459 1124.29 26.2163 1124.26 26.1892C1124.2 26.1404 1124.15 26.0972 1124.1 26.0609C1124.07 26.0379 1124.05 26.0177 1124.03 26.0006C1124.01 25.9881 1123.99 25.9797 1123.98 25.9734L1123.75 25.9064V23.9285C1123.75 23.6058 1123.63 23.3167 1123.44 23.105C1123.24 22.8934 1122.97 22.7635 1122.67 22.7635C1122.07 22.7635 1121.59 23.2852 1121.59 23.9285V25.261L1121.47 25.2275L1121.17 25.1353L1120.89 25.0536C1120.89 25.0536 1120.89 25.0532 1120.89 25.0528C1120.89 25.0522 1120.89 25.0515 1120.88 25.0515H1120.88L1118.77 24.4439C1118.68 24.4166 1118.6 24.5235 1118.65 24.6136L1118.99 25.2757C1119 25.3266 1119.03 25.3775 1119.05 25.4297C1119.07 25.4636 1119.09 25.498 1119.1 25.5334C1119.16 25.6507 1119.21 25.7743 1119.26 25.898C1119.31 26.0069 1119.36 26.1138 1119.41 26.2311C1119.44 26.2863 1119.46 26.3421 1119.48 26.3987C1119.57 26.6067 1119.67 26.8253 1119.76 27.0608C1119.84 27.2599 1119.91 27.4589 1119.98 27.6663C1120.17 28.188 1120.35 28.7454 1120.51 29.3174C1120.55 29.4454 1120.58 29.5693 1120.61 29.6949C1120.62 29.7481 1120.63 29.8016 1120.65 29.8559L1120.67 29.9564C1120.73 30.2225 1120.79 30.4865 1120.83 30.7526C1120.86 30.9349 1120.89 31.1088 1120.9 31.2848C1120.93 31.4838 1120.95 31.6829 1120.96 31.8819C1120.98 32.0642 1120.98 32.2549 1120.98 32.4372C1120.98 32.9023 1120.94 33.3507 1120.85 33.7739C1120.85 33.7966 1120.84 33.8197 1120.83 33.8429C1120.81 33.9459 1120.78 34.0526 1120.75 34.1553C1120.72 34.2651 1120.68 34.375 1120.64 34.4891C1120.63 34.5295 1120.61 34.5704 1120.6 34.612C1120.6 34.6194 1120.6 34.6268 1120.59 34.6343C1120.56 34.7173 1120.53 34.8017 1120.5 34.8844C1120.3 35.3831 1120.06 35.8796 1119.81 36.3448C1119.45 37.0341 1119.08 37.6396 1118.82 38.0293C1118.8 38.0545 1118.79 38.0785 1118.77 38.1015C1118.76 38.1303 1118.74 38.1576 1118.72 38.1844C1118.64 38.3059 1118.72 38.4777 1118.86 38.4777H1121.59V40.7678H1118.83C1118.09 40.7678 1117.41 40.3215 1117.08 39.607C1116.9 39.2487 1116.84 38.8548 1116.88 38.4693C1116.89 38.3541 1116.81 38.2451 1116.7 38.2451H1111.13C1111.04 38.2451 1110.96 38.3268 1110.96 38.4274V38.5489C1110.96 42.3287 1113.83 45.3919 1117.37 45.3919H1127.35C1129.22 45.3919 1130.28 43.5763 1131.33 41.7918C1131.62 41.2943 1131.91 40.7993 1132.22 40.3466C1132.77 39.5337 1134.09 38.8883 1134.47 38.7123C1134.53 38.683 1134.58 38.616 1134.58 38.5405Z" fill="white"/>
</g>
<path d="M1165.84 46.7235C1163.72 46.7235 1161.78 46.2328 1160.01 45.2515C1158.26 44.2702 1156.87 42.9048 1155.82 41.1555C1154.8 39.3848 1154.28 37.4008 1154.28 35.2035C1154.28 33.0062 1154.8 31.0328 1155.82 29.2835C1156.87 27.5342 1158.26 26.1688 1160.01 25.1875C1161.78 24.2062 1163.72 23.7155 1165.84 23.7155C1167.95 23.7155 1169.88 24.2062 1171.63 25.1875C1173.4 26.1688 1174.79 27.5342 1175.79 29.2835C1176.81 31.0328 1177.32 33.0062 1177.32 35.2035C1177.32 37.4008 1176.81 39.3848 1175.79 41.1555C1174.76 42.9048 1173.38 44.2702 1171.63 45.2515C1169.88 46.2328 1167.95 46.7235 1165.84 46.7235ZM1165.84 41.7315C1167.63 41.7315 1169.06 41.1342 1170.12 39.9395C1171.21 38.7448 1171.76 37.1662 1171.76 35.2035C1171.76 33.2195 1171.21 31.6408 1170.12 30.4675C1169.06 29.2728 1167.63 28.6755 1165.84 28.6755C1164.02 28.6755 1162.57 29.2622 1161.48 30.4355C1160.42 31.6088 1159.88 33.1982 1159.88 35.2035C1159.88 37.1875 1160.42 38.7768 1161.48 39.9715C1162.57 41.1448 1164.02 41.7315 1165.84 41.7315ZM1184.88 31.1715C1185.41 30.3395 1186.15 29.6675 1187.09 29.1555C1188.03 28.6435 1189.13 28.3875 1190.38 28.3875C1191.86 28.3875 1193.19 28.7608 1194.38 29.5075C1195.58 30.2542 1196.52 31.3208 1197.2 32.7075C1197.9 34.0942 1198.26 35.7048 1198.26 37.5395C1198.26 39.3742 1197.9 40.9955 1197.2 42.4035C1196.52 43.7902 1195.58 44.8675 1194.38 45.6355C1193.19 46.3822 1191.86 46.7555 1190.38 46.7555C1189.15 46.7555 1188.05 46.4995 1187.09 45.9875C1186.15 45.4755 1185.41 44.8142 1184.88 44.0035V55.0115H1179.41V28.6435H1184.88V31.1715ZM1192.69 37.5395C1192.69 36.1742 1192.3 35.1075 1191.54 34.3395C1190.79 33.5502 1189.86 33.1555 1188.75 33.1555C1187.66 33.1555 1186.74 33.5502 1185.97 34.3395C1185.22 35.1288 1184.85 36.2062 1184.85 37.5715C1184.85 38.9368 1185.22 40.0142 1185.97 40.8035C1186.74 41.5928 1187.66 41.9875 1188.75 41.9875C1189.84 41.9875 1190.77 41.5928 1191.54 40.8035C1192.3 39.9928 1192.69 38.9048 1192.69 37.5395ZM1217 37.2835C1217 37.7955 1216.97 38.3288 1216.9 38.8835H1204.52C1204.6 39.9928 1204.96 40.8462 1205.57 41.4435C1206.21 42.0195 1206.99 42.3075 1207.91 42.3075C1209.28 42.3075 1210.23 41.7315 1210.76 40.5795H1216.58C1216.28 41.7528 1215.74 42.8088 1214.95 43.7475C1214.18 44.6862 1213.21 45.4222 1212.04 45.9555C1210.87 46.4888 1209.55 46.7555 1208.1 46.7555C1206.35 46.7555 1204.8 46.3822 1203.43 45.6355C1202.07 44.8888 1201 43.8222 1200.23 42.4355C1199.46 41.0488 1199.08 39.4275 1199.08 37.5715C1199.08 35.7155 1199.45 34.0942 1200.2 32.7075C1200.97 31.3208 1202.03 30.2542 1203.4 29.5075C1204.76 28.7608 1206.33 28.3875 1208.1 28.3875C1209.83 28.3875 1211.37 28.7502 1212.71 29.4755C1214.05 30.2008 1215.1 31.2355 1215.85 32.5795C1216.61 33.9235 1217 35.4915 1217 37.2835ZM1211.4 35.8435C1211.4 34.9048 1211.08 34.1582 1210.44 33.6035C1209.8 33.0488 1209 32.7715 1208.04 32.7715C1207.12 32.7715 1206.34 33.0382 1205.7 33.5715C1205.08 34.1048 1204.7 34.8622 1204.55 35.8435H1211.4ZM1229.81 28.4515C1231.9 28.4515 1233.56 29.1342 1234.8 30.4995C1236.06 31.8435 1236.69 33.6995 1236.69 36.0675V46.4995H1231.25V36.8035C1231.25 35.6088 1230.94 34.6808 1230.32 34.0195C1229.7 33.3582 1228.87 33.0275 1227.82 33.0275C1226.78 33.0275 1225.94 33.3582 1225.33 34.0195C1224.71 34.6808 1224.4 35.6088 1224.4 36.8035V46.4995H1218.93V28.6435H1224.4V31.0115C1224.95 30.2222 1225.7 29.6035 1226.64 29.1555C1227.58 28.6862 1228.63 28.4515 1229.81 28.4515ZM1247.66 46.7235C1246.01 46.7235 1244.54 46.4568 1243.24 45.9235C1241.94 45.3902 1240.89 44.6008 1240.1 43.5555C1239.34 42.5102 1238.93 41.2515 1238.89 39.7795H1244.71C1244.8 40.6115 1245.09 41.2515 1245.58 41.6995C1246.07 42.1262 1246.71 42.3395 1247.5 42.3395C1248.31 42.3395 1248.95 42.1582 1249.42 41.7955C1249.89 41.4115 1250.12 40.8888 1250.12 40.2275C1250.12 39.6728 1249.93 39.2142 1249.54 38.8515C1249.18 38.4888 1248.72 38.1902 1248.17 37.9555C1247.63 37.7208 1246.87 37.4542 1245.86 37.1555C1244.41 36.7075 1243.23 36.2595 1242.31 35.8115C1241.39 35.3635 1240.61 34.7022 1239.94 33.8275C1239.28 32.9528 1238.95 31.8115 1238.95 30.4035C1238.95 28.3128 1239.71 26.6808 1241.22 25.5075C1242.74 24.3128 1244.71 23.7155 1247.14 23.7155C1249.62 23.7155 1251.61 24.3128 1253.13 25.5075C1254.64 26.6808 1255.45 28.3235 1255.56 30.4355H1249.64C1249.6 29.7102 1249.33 29.1448 1248.84 28.7395C1248.35 28.3128 1247.72 28.0995 1246.95 28.0995C1246.29 28.0995 1245.76 28.2808 1245.35 28.6435C1244.95 28.9848 1244.74 29.4862 1244.74 30.1475C1244.74 30.8728 1245.09 31.4382 1245.77 31.8435C1246.45 32.2488 1247.52 32.6862 1248.97 33.1555C1250.42 33.6462 1251.59 34.1155 1252.49 34.5635C1253.41 35.0115 1254.19 35.6622 1254.86 36.5155C1255.52 37.3688 1255.85 38.4675 1255.85 39.8115C1255.85 41.0915 1255.52 42.2542 1254.86 43.2995C1254.22 44.3448 1253.28 45.1768 1252.04 45.7955C1250.8 46.4142 1249.34 46.7235 1247.66 46.7235ZM1275.09 37.2835C1275.09 37.7955 1275.06 38.3288 1274.99 38.8835H1262.61C1262.69 39.9928 1263.04 40.8462 1263.66 41.4435C1264.3 42.0195 1265.08 42.3075 1266 42.3075C1267.36 42.3075 1268.31 41.7315 1268.85 40.5795H1274.67C1274.37 41.7528 1273.83 42.8088 1273.04 43.7475C1272.27 44.6862 1271.3 45.4222 1270.13 45.9555C1268.95 46.4888 1267.64 46.7555 1266.19 46.7555C1264.44 46.7555 1262.88 46.3822 1261.52 45.6355C1260.15 44.8888 1259.09 43.8222 1258.32 42.4355C1257.55 41.0488 1257.17 39.4275 1257.17 37.5715C1257.17 35.7155 1257.54 34.0942 1258.29 32.7075C1259.06 31.3208 1260.12 30.2542 1261.49 29.5075C1262.85 28.7608 1264.42 28.3875 1266.19 28.3875C1267.92 28.3875 1269.46 28.7502 1270.8 29.4755C1272.14 30.2008 1273.19 31.2355 1273.94 32.5795C1274.7 33.9235 1275.09 35.4915 1275.09 37.2835ZM1269.49 35.8435C1269.49 34.9048 1269.17 34.1582 1268.53 33.6035C1267.89 33.0488 1267.09 32.7715 1266.13 32.7715C1265.21 32.7715 1264.43 33.0382 1263.79 33.5715C1263.17 34.1048 1262.79 34.8622 1262.64 35.8435H1269.49ZM1275.93 37.5395C1275.93 35.7048 1276.27 34.0942 1276.95 32.7075C1277.65 31.3208 1278.6 30.2542 1279.8 29.5075C1280.99 28.7608 1282.33 28.3875 1283.8 28.3875C1285.06 28.3875 1286.16 28.6435 1287.09 29.1555C1288.05 29.6675 1288.79 30.3395 1289.3 31.1715V28.6435H1294.77V46.4995H1289.3V43.9715C1288.77 44.8035 1288.02 45.4755 1287.06 45.9875C1286.12 46.4995 1285.02 46.7555 1283.77 46.7555C1282.32 46.7555 1280.99 46.3822 1279.8 45.6355C1278.6 44.8675 1277.65 43.7902 1276.95 42.4035C1276.27 40.9955 1275.93 39.3742 1275.93 37.5395ZM1289.3 37.5715C1289.3 36.2062 1288.92 35.1288 1288.15 34.3395C1287.4 33.5502 1286.49 33.1555 1285.4 33.1555C1284.31 33.1555 1283.38 33.5502 1282.61 34.3395C1281.87 35.1075 1281.49 36.1742 1281.49 37.5395C1281.49 38.9048 1281.87 39.9928 1282.61 40.8035C1283.38 41.5928 1284.31 41.9875 1285.4 41.9875C1286.49 41.9875 1287.4 41.5928 1288.15 40.8035C1288.92 40.0142 1289.3 38.9368 1289.3 37.5715Z" fill="white"/>
<defs>
<linearGradient id="paint0_linear_1_294" x1="164.903" y1="-2.13013e-06" x2="1381.94" y2="-0.000357601" gradientUnits="userSpaceOnUse">
<stop stop-color="#A02279"/>
<stop stop-color="#A02279"/>
</linearGradient>
<clipPath id="clip0_1_294">
<rect width="38.3157" height="40.7866" fill="white" transform="translate(1102.91 14.6062)"/>
</clipPath>
</defs>
</svg>
